<mxfile host="Electron" agent="Mozilla/5.0 (X11; Linux x86_64) AppleWebKit/537.36 (KHTML, like Gecko) draw.io/26.0.16 Chrome/132.0.6834.196 Electron/34.2.0 Safari/537.36" version="26.0.16">
  <diagram name="Page-1" id="deD12Tp97ydWmm2jgUfE">
    <mxGraphModel dx="989" dy="568" grid="1" gridSize="10" guides="1" tooltips="1" connect="1" arrows="1" fold="1" page="1" pageScale="1" pageWidth="827" pageHeight="1169" math="0" shadow="0">
      <root>
        <mxCell id="0" />
        <mxCell id="1" parent="0" />
        <mxCell id="nI08J4tRAUxgE8vF7HkZ-5" value="" style="endArrow=classic;html=1;rounded=0;exitX=0.5;exitY=0;exitDx=0;exitDy=0;entryX=0.33;entryY=0.971;entryDx=0;entryDy=0;entryPerimeter=0;" edge="1" parent="1" target="nI08J4tRAUxgE8vF7HkZ-1">
          <mxGeometry width="50" height="50" relative="1" as="geometry">
            <mxPoint x="390" y="525" as="sourcePoint" />
            <mxPoint x="390" y="460" as="targetPoint" />
          </mxGeometry>
        </mxCell>
        <mxCell id="nI08J4tRAUxgE8vF7HkZ-1" value="KERNEL" style="ellipse;whiteSpace=wrap;html=1;fillColor=#fff2cc;strokeColor=#d6b656;" vertex="1" parent="1">
          <mxGeometry x="260" y="380" width="300" height="80" as="geometry" />
        </mxCell>
        <mxCell id="nI08J4tRAUxgE8vF7HkZ-15" style="edgeStyle=orthogonalEdgeStyle;rounded=0;orthogonalLoop=1;jettySize=auto;html=1;entryX=0;entryY=0.5;entryDx=0;entryDy=0;" edge="1" parent="1" source="nI08J4tRAUxgE8vF7HkZ-2" target="nI08J4tRAUxgE8vF7HkZ-1">
          <mxGeometry relative="1" as="geometry">
            <Array as="points">
              <mxPoint x="150" y="555" />
              <mxPoint x="150" y="420" />
            </Array>
          </mxGeometry>
        </mxCell>
        <mxCell id="nI08J4tRAUxgE8vF7HkZ-2" value="HARDWARE" style="rounded=1;whiteSpace=wrap;html=1;fillColor=#f8cecc;strokeColor=#b85450;" vertex="1" parent="1">
          <mxGeometry x="228" y="525" width="364" height="60" as="geometry" />
        </mxCell>
        <mxCell id="nI08J4tRAUxgE8vF7HkZ-3" value="" style="endArrow=classic;html=1;rounded=0;exitX=0.5;exitY=0;exitDx=0;exitDy=0;entryX=0.5;entryY=1;entryDx=0;entryDy=0;" edge="1" parent="1" source="nI08J4tRAUxgE8vF7HkZ-2" target="nI08J4tRAUxgE8vF7HkZ-1">
          <mxGeometry width="50" height="50" relative="1" as="geometry">
            <mxPoint x="390" y="450" as="sourcePoint" />
            <mxPoint x="440" y="400" as="targetPoint" />
          </mxGeometry>
        </mxCell>
        <mxCell id="nI08J4tRAUxgE8vF7HkZ-4" value="" style="endArrow=classic;html=1;rounded=0;exitX=0.5;exitY=0;exitDx=0;exitDy=0;entryX=0.661;entryY=0.962;entryDx=0;entryDy=0;entryPerimeter=0;" edge="1" parent="1" target="nI08J4tRAUxgE8vF7HkZ-1">
          <mxGeometry width="50" height="50" relative="1" as="geometry">
            <mxPoint x="430" y="525" as="sourcePoint" />
            <mxPoint x="430" y="460" as="targetPoint" />
          </mxGeometry>
        </mxCell>
        <mxCell id="nI08J4tRAUxgE8vF7HkZ-6" value="Interupts" style="text;html=1;align=center;verticalAlign=middle;whiteSpace=wrap;rounded=0;fillColor=default;" vertex="1" parent="1">
          <mxGeometry x="380" y="470" width="60" height="30" as="geometry" />
        </mxCell>
        <mxCell id="nI08J4tRAUxgE8vF7HkZ-7" value="TASK 2" style="rounded=1;whiteSpace=wrap;html=1;fillColor=#dae8fc;strokeColor=#6c8ebf;" vertex="1" parent="1">
          <mxGeometry x="410" y="260" width="120" height="60" as="geometry" />
        </mxCell>
        <mxCell id="nI08J4tRAUxgE8vF7HkZ-8" value="TASK 1" style="rounded=1;whiteSpace=wrap;html=1;fillColor=#dae8fc;strokeColor=#6c8ebf;" vertex="1" parent="1">
          <mxGeometry x="540" y="260" width="120" height="60" as="geometry" />
        </mxCell>
        <mxCell id="nI08J4tRAUxgE8vF7HkZ-9" value="TASK 3" style="rounded=1;whiteSpace=wrap;html=1;fillColor=#dae8fc;strokeColor=#6c8ebf;" vertex="1" parent="1">
          <mxGeometry x="280" y="260" width="120" height="60" as="geometry" />
        </mxCell>
        <mxCell id="nI08J4tRAUxgE8vF7HkZ-10" value="TASK 4" style="rounded=1;whiteSpace=wrap;html=1;fillColor=#dae8fc;strokeColor=#6c8ebf;" vertex="1" parent="1">
          <mxGeometry x="150" y="260" width="120" height="60" as="geometry" />
        </mxCell>
        <mxCell id="nI08J4tRAUxgE8vF7HkZ-11" value="" style="endArrow=classic;html=1;rounded=0;exitX=0.067;exitY=0.262;exitDx=0;exitDy=0;entryX=0.5;entryY=1;entryDx=0;entryDy=0;exitPerimeter=0;" edge="1" parent="1" source="nI08J4tRAUxgE8vF7HkZ-1" target="nI08J4tRAUxgE8vF7HkZ-10">
          <mxGeometry width="50" height="50" relative="1" as="geometry">
            <mxPoint x="450" y="420" as="sourcePoint" />
            <mxPoint x="500" y="370" as="targetPoint" />
          </mxGeometry>
        </mxCell>
        <mxCell id="nI08J4tRAUxgE8vF7HkZ-12" value="" style="endArrow=classic;html=1;rounded=0;exitX=0.938;exitY=0.279;exitDx=0;exitDy=0;entryX=0.5;entryY=1;entryDx=0;entryDy=0;exitPerimeter=0;" edge="1" parent="1" source="nI08J4tRAUxgE8vF7HkZ-1" target="nI08J4tRAUxgE8vF7HkZ-8">
          <mxGeometry width="50" height="50" relative="1" as="geometry">
            <mxPoint x="290" y="411" as="sourcePoint" />
            <mxPoint x="220" y="330" as="targetPoint" />
          </mxGeometry>
        </mxCell>
        <mxCell id="nI08J4tRAUxgE8vF7HkZ-13" value="" style="endArrow=classic;html=1;rounded=0;exitX=0.703;exitY=0.021;exitDx=0;exitDy=0;entryX=0.5;entryY=1;entryDx=0;entryDy=0;exitPerimeter=0;" edge="1" parent="1" source="nI08J4tRAUxgE8vF7HkZ-1" target="nI08J4tRAUxgE8vF7HkZ-7">
          <mxGeometry width="50" height="50" relative="1" as="geometry">
            <mxPoint x="551" y="412" as="sourcePoint" />
            <mxPoint x="610" y="330" as="targetPoint" />
          </mxGeometry>
        </mxCell>
        <mxCell id="nI08J4tRAUxgE8vF7HkZ-14" value="" style="endArrow=classic;html=1;rounded=0;exitX=0.267;exitY=0.038;exitDx=0;exitDy=0;entryX=0.5;entryY=1;entryDx=0;entryDy=0;exitPerimeter=0;" edge="1" parent="1" source="nI08J4tRAUxgE8vF7HkZ-1" target="nI08J4tRAUxgE8vF7HkZ-9">
          <mxGeometry width="50" height="50" relative="1" as="geometry">
            <mxPoint x="481" y="392" as="sourcePoint" />
            <mxPoint x="480" y="330" as="targetPoint" />
          </mxGeometry>
        </mxCell>
        <mxCell id="nI08J4tRAUxgE8vF7HkZ-16" value="" style="image;sketch=0;aspect=fixed;html=1;points=[];align=center;fontSize=12;image=img/lib/mscae/Clock.svg;" vertex="1" parent="1">
          <mxGeometry x="126" y="460" width="50" height="50" as="geometry" />
        </mxCell>
        <mxCell id="nI08J4tRAUxgE8vF7HkZ-17" value="CLOCK" style="text;html=1;align=center;verticalAlign=middle;whiteSpace=wrap;rounded=0;" vertex="1" parent="1">
          <mxGeometry x="90" y="430" width="60" height="30" as="geometry" />
        </mxCell>
        <mxCell id="nI08J4tRAUxgE8vF7HkZ-21" value="Applicative tasks" style="swimlane;whiteSpace=wrap;html=1;" vertex="1" parent="1">
          <mxGeometry x="120" y="220" width="570" height="150" as="geometry" />
        </mxCell>
        <mxCell id="nI08J4tRAUxgE8vF7HkZ-29" value="Activate" style="text;html=1;align=center;verticalAlign=middle;whiteSpace=wrap;rounded=0;rotation=48;" vertex="1" parent="nI08J4tRAUxgE8vF7HkZ-21">
          <mxGeometry x="108" y="120" width="60" height="30" as="geometry" />
        </mxCell>
        <mxCell id="nI08J4tRAUxgE8vF7HkZ-32" value="Activate" style="text;html=1;align=center;verticalAlign=middle;whiteSpace=wrap;rounded=0;rotation=308;" vertex="1" parent="nI08J4tRAUxgE8vF7HkZ-21">
          <mxGeometry x="410" y="120" width="60" height="30" as="geometry" />
        </mxCell>
        <mxCell id="nI08J4tRAUxgE8vF7HkZ-23" value="" style="shape=flexArrow;endArrow=classic;html=1;rounded=0;entryX=0;entryY=0.25;entryDx=0;entryDy=0;exitX=1;exitY=1;exitDx=0;exitDy=0;fillColor=#d5e8d4;strokeColor=#82b366;" edge="1" parent="1" source="nI08J4tRAUxgE8vF7HkZ-21" target="nI08J4tRAUxgE8vF7HkZ-28">
          <mxGeometry width="50" height="50" relative="1" as="geometry">
            <mxPoint x="500" y="420" as="sourcePoint" />
            <mxPoint x="550" y="370" as="targetPoint" />
          </mxGeometry>
        </mxCell>
        <mxCell id="nI08J4tRAUxgE8vF7HkZ-24" value="" style="shape=flexArrow;endArrow=classic;html=1;rounded=0;fillColor=#d5e8d4;strokeColor=#82b366;" edge="1" parent="1" source="nI08J4tRAUxgE8vF7HkZ-1">
          <mxGeometry width="50" height="50" relative="1" as="geometry">
            <mxPoint x="700" y="360" as="sourcePoint" />
            <mxPoint x="770" y="420" as="targetPoint" />
          </mxGeometry>
        </mxCell>
        <mxCell id="nI08J4tRAUxgE8vF7HkZ-27" value="DISPLAYS" style="text;html=1;align=center;verticalAlign=middle;whiteSpace=wrap;rounded=0;rotation=15;" vertex="1" parent="1">
          <mxGeometry x="680" y="380" width="60" height="30" as="geometry" />
        </mxCell>
        <mxCell id="nI08J4tRAUxgE8vF7HkZ-28" value="Display tasks" style="swimlane;whiteSpace=wrap;html=1;" vertex="1" parent="1">
          <mxGeometry x="770" y="370" width="90" height="100" as="geometry" />
        </mxCell>
        <mxCell id="nI08J4tRAUxgE8vF7HkZ-20" value="" style="verticalLabelPosition=bottom;html=1;verticalAlign=top;align=center;strokeColor=none;fillColor=#00BEF2;shape=mxgraph.azure.computer;pointerEvents=1;" vertex="1" parent="nI08J4tRAUxgE8vF7HkZ-28">
          <mxGeometry x="20" y="40" width="50" height="45" as="geometry" />
        </mxCell>
        <mxCell id="nI08J4tRAUxgE8vF7HkZ-30" value="Activate" style="text;html=1;align=center;verticalAlign=middle;whiteSpace=wrap;rounded=0;rotation=91;" vertex="1" parent="1">
          <mxGeometry x="320" y="340" width="60" height="30" as="geometry" />
        </mxCell>
        <mxCell id="nI08J4tRAUxgE8vF7HkZ-31" value="Activate" style="text;html=1;align=center;verticalAlign=middle;whiteSpace=wrap;rounded=0;rotation=90;" vertex="1" parent="1">
          <mxGeometry x="450" y="340" width="60" height="30" as="geometry" />
        </mxCell>
      </root>
    </mxGraphModel>
  </diagram>
</mxfile>
